<svg xmlns="http://www.w3.org/2000/svg" width="543.5665893554688" height="576.7827758789062" viewBox="-172.36781311035156 -164.737060546875 543.5665893554688 576.7827758789062"><title>Neo4j Graph Visualization</title><desc>Created using Neo4j (http://www.neo4j.com/)</desc><g class="layer relationships"><g class="relationship" transform="translate(308.6479778695389 155.9268549543482) rotate(217.33310844958214)"><path class="outline" fill="#569480" stroke="none" d="M 32.5 1.5 L 49.728494218764325 1.5 L 49.728494218764325 -1.5 L 32.5 -1.5 Z M 80.63474421876433 1.5 L 97.86323843752865 1.5 L 97.86323843752865 4.5 L 106.86323843752865 0 L 97.86323843752865 -4.5 L 97.86323843752865 -1.5 L 80.63474421876433 -1.5 Z"/><text text-anchor="middle" pointer-events="none" font-size="8px" fill="#000000" x="65.18161921876433" y="3" transform="rotate(180 65.18161921876433 0)" font-family="sans-serif">part_of</text></g><g class="relationship" transform="translate(334.6988009988712 56.96595650144805) rotate(533.9753248254497)"><path class="outline" fill="#569480" stroke="none" d="M 32.5 1.5 L 48.857814504860826 1.5 L 48.857814504860826 -1.5 L 32.5 -1.5 Z M 79.76406450486083 1.5 L 96.12187900972165 1.5 L 96.12187900972165 4.5 L 105.12187900972165 0 L 96.12187900972165 -4.5 L 96.12187900972165 -1.5 L 79.76406450486083 -1.5 Z"/><text text-anchor="middle" pointer-events="none" font-size="8px" fill="#000000" x="64.31093950486083" y="3" transform="rotate(180 64.31093950486083 0)" font-family="sans-serif">part_of</text></g><g class="relationship" transform="translate(288.94324915254435 -32.980955047575364) rotate(491.1124376726722)"><path class="outline" fill="#569480" stroke="none" d="M 32.5 1.5 L 49.32507608234582 1.5 L 49.32507608234582 -1.5 L 32.5 -1.5 Z M 80.23132608234582 1.5 L 97.05640216469163 1.5 L 97.05640216469163 4.5 L 106.05640216469163 0 L 97.05640216469163 -4.5 L 97.05640216469163 -1.5 L 80.23132608234582 -1.5 Z"/><text text-anchor="middle" pointer-events="none" font-size="8px" fill="#000000" x="64.77820108234582" y="3" transform="rotate(180 64.77820108234582 0)" font-family="sans-serif">part_of</text></g><g class="relationship" transform="translate(90.42503499955787 89.45033333695704) rotate(182.28404121028439)"><path class="outline" fill="#569480" stroke="none" d="M 32.5 1.5 L 51.46347342779249 1.5 L 51.46347342779249 -1.5 L 32.5 -1.5 Z M 82.3697234277925 1.5 L 101.33319685558499 1.5 L 101.33319685558499 4.5 L 110.33319685558499 0 L 101.33319685558499 -4.5 L 101.33319685558499 -1.5 L 82.3697234277925 -1.5 Z"/><text text-anchor="middle" pointer-events="none" font-size="8px" fill="#000000" x="66.9165984277925" y="3" transform="rotate(180 66.9165984277925 0)" font-family="sans-serif">part_of</text></g><g class="relationship" transform="translate(90.42503499955787 89.45033333695704) rotate(249.94837926596506)"><path class="outline" fill="#569480" stroke="none" d="M 32.5 1.5 L 38.95892118248659 1.5 L 38.95892118248659 -1.5 L 32.5 -1.5 Z M 38.95892118248659 1.5 L 45.41784236497318 1.5 L 45.41784236497318 4.5 L 54.41784236497318 0 L 45.41784236497318 -4.5 L 45.41784236497318 -1.5 L 38.95892118248659 -1.5 Z"/><text text-anchor="middle" pointer-events="none" font-size="8px" fill="#000000" x="38.95892118248659" y="3" transform="rotate(180 38.95892118248659 0)" font-family="sans-serif"/></g><g class="relationship" transform="translate(90.42503499955787 89.45033333695704) rotate(350.46605447535376)"><path class="outline" fill="#569480" stroke="none" d="M 32.5 1.5 L 34.5050719941684 1.5 L 34.5050719941684 -1.5 L 32.5 -1.5 Z M 65.41132199416839 1.5 L 67.4163939883368 1.5 L 67.4163939883368 4.5 L 76.4163939883368 0 L 67.4163939883368 -4.5 L 67.4163939883368 -1.5 L 65.41132199416839 -1.5 Z"/><text text-anchor="middle" pointer-events="none" font-size="8px" fill="#000000" x="49.9581969941684" y="3" font-family="sans-serif">part_of</text></g><g class="relationship" transform="translate(87.99253120355017 164.33941685485635) rotate(209.8732150449307)"><path class="outline" fill="#569480" stroke="none" d="M 32.5 1.5 L 60.938590855807945 1.5 L 60.938590855807945 -1.5 L 32.5 -1.5 Z M 91.84484085580794 1.5 L 120.28343171161589 1.5 L 120.28343171161589 4.5 L 129.2834317116159 0 L 120.28343171161589 -4.5 L 120.28343171161589 -1.5 L 91.84484085580794 -1.5 Z"/><text text-anchor="middle" pointer-events="none" font-size="8px" fill="#000000" x="76.39171585580794" y="3" transform="rotate(180 76.39171585580794 0)" font-family="sans-serif">part_of</text></g><g class="relationship" transform="translate(87.99253120355017 164.33941685485635) rotate(493.0287338322485)"><path class="outline" fill="#569480" stroke="none" d="M 32.5 1.5 L 46.44412199926947 1.5 L 46.44412199926947 -1.5 L 32.5 -1.5 Z M 77.35037199926947 1.5 L 91.29449399853894 1.5 L 91.29449399853894 4.5 L 100.29449399853894 0 L 91.29449399853894 -4.5 L 91.29449399853894 -1.5 L 77.35037199926947 -1.5 Z"/><text text-anchor="middle" pointer-events="none" font-size="8px" fill="#000000" x="61.89724699926947" y="3" transform="rotate(180 61.89724699926947 0)" font-family="sans-serif">part_of</text></g><g class="relationship" transform="translate(87.99253120355017 164.33941685485635) rotate(260.0828048752055)"><path class="outline" fill="#569480" stroke="none" d="M 32.5 1.5 L 59.50329914502677 1.5 L 59.50329914502677 -1.5 L 32.5 -1.5 Z M 90.40954914502677 1.5 L 117.41284829005355 1.5 L 117.41284829005355 4.5 L 126.41284829005355 0 L 117.41284829005355 -4.5 L 117.41284829005355 -1.5 L 90.40954914502677 -1.5 Z"/><text text-anchor="middle" pointer-events="none" font-size="8px" fill="#000000" x="74.95642414502677" y="3" transform="rotate(180 74.95642414502677 0)" font-family="sans-serif">part_of</text></g><g class="relationship" transform="translate(87.99253120355017 164.33941685485635) rotate(319.7685775969665)"><path class="outline" fill="#569480" stroke="none" d="M 32.5 1.5 L 51.98719004735359 1.5 L 51.98719004735359 -1.5 L 32.5 -1.5 Z M 82.8934400473536 1.5 L 102.38063009470719 1.5 L 102.38063009470719 4.5 L 111.38063009470719 0 L 102.38063009470719 -4.5 L 102.38063009470719 -1.5 L 82.8934400473536 -1.5 Z"/><text text-anchor="middle" pointer-events="none" font-size="8px" fill="#000000" x="67.4403150473536" y="3" font-family="sans-serif">part_of</text></g><g class="relationship" transform="translate(24.62098407195394 125.09715194969269) rotate(208.25632250617815)"><path class="outline" fill="#569480" stroke="none" d="M 32.5 1.5 L 39.16048352256594 1.5 L 39.16048352256594 -1.5 L 32.5 -1.5 Z M 39.16048352256594 1.5 L 45.82096704513188 1.5 L 45.82096704513188 4.5 L 54.82096704513188 0 L 45.82096704513188 -4.5 L 45.82096704513188 -1.5 L 39.16048352256594 -1.5 Z"/><text text-anchor="middle" pointer-events="none" font-size="8px" fill="#000000" x="39.16048352256594" y="3" transform="rotate(180 39.16048352256594 0)" font-family="sans-serif"/></g><g class="relationship" transform="translate(24.62098407195394 125.09715194969269) rotate(461.30163038551484)"><path class="outline" fill="#569480" stroke="none" d="M 32.5 1.5 L 49.55295098028752 1.5 L 49.55295098028752 -1.5 L 32.5 -1.5 Z M 80.45920098028752 1.5 L 97.51215196057504 1.5 L 97.51215196057504 4.5 L 106.51215196057504 0 L 97.51215196057504 -4.5 L 97.51215196057504 -1.5 L 80.45920098028752 -1.5 Z"/><text text-anchor="middle" pointer-events="none" font-size="8px" fill="#000000" x="65.00607598028752" y="3" transform="rotate(180 65.00607598028752 0)" font-family="sans-serif">part_of</text></g><g class="relationship" transform="translate(24.62098407195394 125.09715194969269) rotate(287.0633320384835)"><path class="outline" fill="#569480" stroke="none" d="M 32.5 1.5 L 41.395404738896765 1.5 L 41.395404738896765 -1.5 L 32.5 -1.5 Z M 72.30165473889676 1.5 L 81.19705947779353 1.5 L 81.19705947779353 4.5 L 90.19705947779353 0 L 81.19705947779353 -4.5 L 81.19705947779353 -1.5 L 72.30165473889676 -1.5 Z"/><text text-anchor="middle" pointer-events="none" font-size="8px" fill="#000000" x="56.848529738896765" y="3" font-family="sans-serif">part_of</text></g><g class="relationship" transform="translate(24.62098407195394 125.09715194969269) rotate(342.7796199796935)"><path class="outline" fill="#569480" stroke="none" d="M 32.5 1.5 L 70.71947115840325 1.5 L 70.71947115840325 -1.5 L 32.5 -1.5 Z M 101.62572115840325 1.5 L 139.8451923168065 1.5 L 139.8451923168065 4.5 L 148.8451923168065 0 L 139.8451923168065 -4.5 L 139.8451923168065 -1.5 L 101.62572115840325 -1.5 Z"/><text text-anchor="middle" pointer-events="none" font-size="8px" fill="#000000" x="86.17259615840325" y="3" font-family="sans-serif">part_of</text></g><g class="relationship" transform="translate(173.17162045220218 -55.66847944769834) rotate(510.5798568409674)"><path class="outline" fill="#569480" stroke="none" d="M 32.5 1.5 L 44.65220937388963 1.5 L 44.65220937388963 -1.5 L 32.5 -1.5 Z M 75.55845937388963 1.5 L 87.71066874777927 1.5 L 87.71066874777927 4.5 L 96.71066874777927 0 L 87.71066874777927 -4.5 L 87.71066874777927 -1.5 L 75.55845937388963 -1.5 Z"/><text text-anchor="middle" pointer-events="none" font-size="8px" fill="#000000" x="60.10533437388963" y="3" transform="rotate(180 60.10533437388963 0)" font-family="sans-serif">part_of</text></g><g class="relationship" transform="translate(173.17162045220218 -55.66847944769834) rotate(439.0157264748123)"><path class="outline" fill="#569480" stroke="none" d="M 32.5 1.5 L 44.77206259551973 1.5 L 44.77206259551973 -1.5 L 32.5 -1.5 Z M 75.67831259551973 1.5 L 87.95037519103946 1.5 L 87.95037519103946 4.5 L 96.95037519103946 0 L 87.95037519103946 -4.5 L 87.95037519103946 -1.5 L 75.67831259551973 -1.5 Z"/><text text-anchor="middle" pointer-events="none" font-size="8px" fill="#000000" x="60.22518759551973" y="3" font-family="sans-serif">part_of</text></g><g class="relationship" transform="translate(161.15382499545683 147.90555007826367) rotate(234.33919163458063)"><path class="outline" fill="#569480" stroke="none" d="M 32.5 1.5 L 66.26685930028516 1.5 L 66.26685930028516 -1.5 L 32.5 -1.5 Z M 97.17310930028516 1.5 L 130.93996860057032 1.5 L 130.93996860057032 4.5 L 139.93996860057032 0 L 130.93996860057032 -4.5 L 130.93996860057032 -1.5 L 97.17310930028516 -1.5 Z"/><text text-anchor="middle" pointer-events="none" font-size="8px" fill="#000000" x="81.71998430028516" y="3" transform="rotate(180 81.71998430028516 0)" font-family="sans-serif">part_of</text></g><g class="relationship" transform="translate(161.15382499545683 147.90555007826367) rotate(295.6199960002995)"><path class="outline" fill="#569480" stroke="none" d="M 32.5 1.5 L 37.918100261373006 1.5 L 37.918100261373006 -1.5 L 32.5 -1.5 Z M 37.918100261373006 1.5 L 43.33620052274601 1.5 L 43.33620052274601 4.5 L 52.33620052274601 0 L 43.33620052274601 -4.5 L 43.33620052274601 -1.5 L 37.918100261373006 -1.5 Z"/><text text-anchor="middle" pointer-events="none" font-size="8px" fill="#000000" x="37.918100261373006" y="3" font-family="sans-serif"/></g><g class="relationship" transform="translate(65.01113771660887 -128.23706275090842) rotate(451.84719040276275)"><path class="outline" fill="#569480" stroke="none" d="M 32.5 1.5 L 48.101318116893594 1.5 L 48.101318116893594 -1.5 L 32.5 -1.5 Z M 79.0075681168936 1.5 L 94.60888623378719 1.5 L 94.60888623378719 4.5 L 103.60888623378719 0 L 94.60888623378719 -4.5 L 94.60888623378719 -1.5 L 79.0075681168936 -1.5 Z"/><text text-anchor="middle" pointer-events="none" font-size="8px" fill="#000000" x="63.554443116893594" y="3" transform="rotate(180 63.554443116893594 0)" font-family="sans-serif">part_of</text></g><g class="relationship" transform="translate(-85.85390057737688 -4.151108102386517) rotate(429.1056791554742)"><path class="outline" fill="#569480" stroke="none" d="M 32.5 1.5 L 33.32382424103798 1.5 L 33.32382424103798 -1.5 L 32.5 -1.5 Z M 51.77304299103798 1.5 L 52.596867232075965 1.5 L 52.596867232075965 4.5 L 61.596867232075965 0 L 52.596867232075965 -4.5 L 52.596867232075965 -1.5 L 51.77304299103798 -1.5 Z"/><text text-anchor="middle" pointer-events="none" font-size="8px" fill="#000000" x="42.54843361603798" y="3" font-family="sans-serif">p…</text></g><g class="relationship" transform="translate(-85.85390057737688 -4.151108102386517) rotate(364.664852858187)"><path class="outline" fill="#569480" stroke="none" d="M 32.5 1.5 L 53.52914200130593 1.5 L 53.52914200130593 -1.5 L 32.5 -1.5 Z M 84.43539200130593 1.5 L 105.46453400261186 1.5 L 105.46453400261186 4.5 L 114.46453400261186 0 L 105.46453400261186 -4.5 L 105.46453400261186 -1.5 L 84.43539200130593 -1.5 Z"/><text text-anchor="middle" pointer-events="none" font-size="8px" fill="#000000" x="68.98226700130593" y="3" font-family="sans-serif">part_of</text></g><g class="relationship" transform="translate(64.80382128508485 375.54572530086045) rotate(239.42673503221118)"><path class="outline" fill="#569480" stroke="none" d="M 32.5 1.5 L 46.32719873013794 1.5 L 46.32719873013794 -1.5 L 32.5 -1.5 Z M 77.23344873013794 1.5 L 91.06064746027587 1.5 L 91.06064746027587 4.5 L 100.06064746027587 0 L 91.06064746027587 -4.5 L 91.06064746027587 -1.5 L 77.23344873013794 -1.5 Z"/><text text-anchor="middle" pointer-events="none" font-size="8px" fill="#000000" x="61.78032373013794" y="3" transform="rotate(180 61.78032373013794 0)" font-family="sans-serif">part_of</text></g><g class="relationship" transform="translate(-135.86781282592753 256.8574818008409) rotate(361.95842363005556)"><path class="outline" fill="#569480" stroke="none" d="M 32.5 1.5 L 46.70882437842441 1.5 L 46.70882437842441 -1.5 L 32.5 -1.5 Z M 77.61507437842441 1.5 L 91.82389875684882 1.5 L 91.82389875684882 4.5 L 100.82389875684882 0 L 91.82389875684882 -4.5 L 91.82389875684882 -1.5 L 77.61507437842441 -1.5 Z"/><text text-anchor="middle" pointer-events="none" font-size="8px" fill="#000000" x="62.16194937842441" y="3" font-family="sans-serif">part_of</text></g><g class="relationship" transform="translate(-63.655435878226 374.11736964867595) rotate(298.43736324337624)"><path class="outline" fill="#569480" stroke="none" d="M 32.5 1.5 L 44.13122594715132 1.5 L 44.13122594715132 -1.5 L 32.5 -1.5 Z M 75.03747594715132 1.5 L 86.66870189430264 1.5 L 86.66870189430264 4.5 L 95.66870189430264 0 L 86.66870189430264 -4.5 L 86.66870189430264 -1.5 L 75.03747594715132 -1.5 Z"/><text text-anchor="middle" pointer-events="none" font-size="8px" fill="#000000" x="59.58435094715132" y="3" font-family="sans-serif">part_of</text></g><g class="relationship" transform="translate(-78.60166185276802 -78.53421076628747) rotate(440.79264354460895)"><path class="outline" fill="#569480" stroke="none" d="M 32.5 1.5 L 62.25210134201423 1.5 L 62.25210134201423 -1.5 L 32.5 -1.5 Z M 93.15835134201423 1.5 L 122.91045268402846 1.5 L 122.91045268402846 4.5 L 131.91045268402846 0 L 122.91045268402846 -4.5 L 122.91045268402846 -1.5 L 93.15835134201423 -1.5 Z"/><text text-anchor="middle" pointer-events="none" font-size="8px" fill="#000000" x="77.70522634201423" y="3" font-family="sans-serif">part_of</text></g></g><g class="layer nodes"><g class="node" transform="translate(197.83703699588918,71.41030266728455)"><circle class="outline" cx="0" cy="0" r="32.5" fill="#F16667" stroke="#eb2728" stroke-width="2px"/><text text-anchor="middle" pointer-events="none" font-family="sans-serif" dy="2.03125" font-size="32.5" fill="#FFFFFF"/><text text-anchor="middle" pointer-events="none" font-family="sans-serif" dy="2.03125" font-size="32.5" fill="#FFFFFF"/><text text-anchor="middle" pointer-events="none" y="0" font-size="10px" fill="#FFFFFF" font-family="sans-serif"> serotonergic</text><text text-anchor="middle" pointer-events="none" y="10" font-size="10px" fill="#FFFFFF" font-family="sans-serif"> raphe nuclei</text></g><g class="node" transform="translate(308.6479778695389,155.9268549543482)"><circle class="outline" cx="0" cy="0" r="32.5" fill="#57C7E3" stroke="#23b3d7" stroke-width="2px"/><text text-anchor="middle" pointer-events="none" font-family="sans-serif" dy="2.03125" font-size="32.5" fill="#FFFFFF"/><text text-anchor="middle" pointer-events="none" y="5" font-size="10px" fill="#FFFFFF" font-family="sans-serif"> raphe nuclei</text></g><g class="node" transform="translate(334.6988009988712,56.96595650144805)"><circle class="outline" cx="0" cy="0" r="32.5" fill="#57C7E3" stroke="#23b3d7" stroke-width="2px"/><text text-anchor="middle" pointer-events="none" font-family="sans-serif" dy="2.03125" font-size="32.5" fill="#FFFFFF"/><text text-anchor="middle" pointer-events="none" y="5" font-size="10px" fill="#FFFFFF" font-family="sans-serif"> pons</text></g><g class="node" transform="translate(288.94324915254435,-32.980955047575364)"><circle class="outline" cx="0" cy="0" r="32.5" fill="#57C7E3" stroke="#23b3d7" stroke-width="2px"/><text text-anchor="middle" pointer-events="none" font-family="sans-serif" dy="2.03125" font-size="32.5" fill="#FFFFFF"/><text text-anchor="middle" pointer-events="none" y="5" font-size="10px" fill="#FFFFFF" font-family="sans-serif"> medulla</text></g><g class="node" transform="translate(90.42503499955787,89.45033333695704)"><circle class="outline" cx="0" cy="0" r="32.5" fill="#57C7E3" stroke="#23b3d7" stroke-width="2px"/><text text-anchor="middle" pointer-events="none" font-family="sans-serif" dy="2.03125" font-size="32.5" fill="#FFFFFF"/><text text-anchor="middle" pointer-events="none" y="5" font-size="10px" fill="#FFFFFF" font-family="sans-serif"> telencephal…</text></g><g class="node" transform="translate(87.99253120355017,164.33941685485635)"><circle class="outline" cx="0" cy="0" r="32.5" fill="#57C7E3" stroke="#23b3d7" stroke-width="2px"/><text text-anchor="middle" pointer-events="none" font-family="sans-serif" dy="2.03125" font-size="32.5" fill="#FFFFFF"/><text text-anchor="middle" pointer-events="none" y="5" font-size="10px" fill="#FFFFFF" font-family="sans-serif"> diencephalon</text></g><g class="node" transform="translate(24.62098407195394,125.09715194969269)"><circle class="outline" cx="0" cy="0" r="32.5" fill="#57C7E3" stroke="#23b3d7" stroke-width="2px"/><text text-anchor="middle" pointer-events="none" font-family="sans-serif" dy="2.03125" font-size="32.5" fill="#FFFFFF"/><text text-anchor="middle" pointer-events="none" y="5" font-size="10px" fill="#FFFFFF" font-family="sans-serif"> limbic system</text></g><g class="node" transform="translate(173.17162045220218,-55.66847944769834)"><circle class="outline" cx="0" cy="0" r="32.5" fill="#57C7E3" stroke="#23b3d7" stroke-width="2px"/><text text-anchor="middle" pointer-events="none" font-family="sans-serif" dy="2.03125" font-size="32.5" fill="#FFFFFF"/><text text-anchor="middle" pointer-events="none" y="5" font-size="10px" fill="#FFFFFF" font-family="sans-serif"> cerebellum</text></g><g class="node" transform="translate(161.15382499545683,147.90555007826367)"><circle class="outline" cx="0" cy="0" r="32.5" fill="#57C7E3" stroke="#23b3d7" stroke-width="2px"/><text text-anchor="middle" pointer-events="none" font-family="sans-serif" dy="2.03125" font-size="32.5" fill="#FFFFFF"/><text text-anchor="middle" pointer-events="none" y="5" font-size="10px" fill="#FFFFFF" font-family="sans-serif"> spinal cord</text></g><g class="node" transform="translate(60.62380798496966,7.801094578672796)"><circle class="outline" cx="0" cy="0" r="32.5" fill="#F16667" stroke="#eb2728" stroke-width="2px"/><text text-anchor="middle" pointer-events="none" font-family="sans-serif" dy="2.03125" font-size="32.5" fill="#FFFFFF"/><text text-anchor="middle" pointer-events="none" y="5" font-size="10px" fill="#FFFFFF" font-family="sans-serif"> noradrener…</text></g><g class="node" transform="translate(65.01113771660887,-128.23706275090842)"><circle class="outline" cx="0" cy="0" r="32.5" fill="#57C7E3" stroke="#23b3d7" stroke-width="2px"/><text text-anchor="middle" pointer-events="none" font-family="sans-serif" dy="2.03125" font-size="32.5" fill="#FFFFFF"/><text text-anchor="middle" pointer-events="none" font-family="sans-serif" dy="2.03125" font-size="32.5" fill="#FFFFFF"/><text text-anchor="middle" pointer-events="none" y="0" font-size="10px" fill="#FFFFFF" font-family="sans-serif"> locus</text><text text-anchor="middle" pointer-events="none" y="10" font-size="10px" fill="#FFFFFF" font-family="sans-serif"> coeruleus</text></g><g class="node" transform="translate(-85.85390057737688,-4.151108102386517)"><circle class="outline" cx="0" cy="0" r="32.5" fill="#57C7E3" stroke="#23b3d7" stroke-width="2px"/><text text-anchor="middle" pointer-events="none" font-family="sans-serif" dy="2.03125" font-size="32.5" fill="#FFFFFF"/><text text-anchor="middle" pointer-events="none" y="5" font-size="10px" fill="#FFFFFF" font-family="sans-serif"> rostral pons</text></g><g class="node" transform="translate(-2.6217900880045053,261.4137307241745)"><circle class="outline" cx="0" cy="0" r="32.5" fill="#F16667" stroke="#eb2728" stroke-width="2px"/><text text-anchor="middle" pointer-events="none" font-family="sans-serif" dy="2.03125" font-size="32.5" fill="#FFFFFF"/><text text-anchor="middle" pointer-events="none" y="5" font-size="10px" fill="#FFFFFF" font-family="sans-serif"> dopaminergic</text></g><g class="node" transform="translate(64.80382128508485,375.54572530086045)"><circle class="outline" cx="0" cy="0" r="32.5" fill="#57C7E3" stroke="#23b3d7" stroke-width="2px"/><text text-anchor="middle" pointer-events="none" font-family="sans-serif" dy="2.03125" font-size="32.5" fill="#FFFFFF"/><text text-anchor="middle" pointer-events="none" font-family="sans-serif" dy="2.03125" font-size="32.5" fill="#FFFFFF"/><text text-anchor="middle" pointer-events="none" font-family="sans-serif" dy="2.03125" font-size="32.5" fill="#FFFFFF"/><text text-anchor="middle" pointer-events="none" y="-5" font-size="10px" fill="#FFFFFF" font-family="sans-serif"> ventral</text><text text-anchor="middle" pointer-events="none" y="5" font-size="10px" fill="#FFFFFF" font-family="sans-serif"> tegmental</text><text text-anchor="middle" pointer-events="none" y="15" font-size="10px" fill="#FFFFFF" font-family="sans-serif"> nuclei</text></g><g class="node" transform="translate(-135.86781282592753,256.8574818008409)"><circle class="outline" cx="0" cy="0" r="32.5" fill="#57C7E3" stroke="#23b3d7" stroke-width="2px"/><text text-anchor="middle" pointer-events="none" font-family="sans-serif" dy="2.03125" font-size="32.5" fill="#FFFFFF"/><text text-anchor="middle" pointer-events="none" y="5" font-size="10px" fill="#FFFFFF" font-family="sans-serif"> midbrain</text></g><g class="node" transform="translate(-63.655435878226,374.11736964867595)"><circle class="outline" cx="0" cy="0" r="32.5" fill="#57C7E3" stroke="#23b3d7" stroke-width="2px"/><text text-anchor="middle" pointer-events="none" font-family="sans-serif" dy="2.03125" font-size="32.5" fill="#FFFFFF"/><text text-anchor="middle" pointer-events="none" font-family="sans-serif" dy="2.03125" font-size="32.5" fill="#FFFFFF"/><text text-anchor="middle" pointer-events="none" y="0" font-size="10px" fill="#FFFFFF" font-family="sans-serif"> anterior</text><text text-anchor="middle" pointer-events="none" y="10" font-size="10px" fill="#FFFFFF" font-family="sans-serif"> telencephal…</text></g><g class="node" transform="translate(-52.294685794694374,83.75793310533406)"><circle class="outline" cx="0" cy="0" r="32.5" fill="#F16667" stroke="#eb2728" stroke-width="2px"/><text text-anchor="middle" pointer-events="none" font-family="sans-serif" dy="2.03125" font-size="32.5" fill="#FFFFFF"/><text text-anchor="middle" pointer-events="none" font-family="sans-serif" dy="2.03125" font-size="32.5" fill="#FFFFFF"/><text text-anchor="middle" pointer-events="none" y="0" font-size="10px" fill="#FFFFFF" font-family="sans-serif"> cholinergic</text><text text-anchor="middle" pointer-events="none" y="10" font-size="10px" fill="#FFFFFF" font-family="sans-serif"> nuclei</text></g><g class="node" transform="translate(-78.60166185276802,-78.53421076628747)"><circle class="outline" cx="0" cy="0" r="32.5" fill="#57C7E3" stroke="#23b3d7" stroke-width="2px"/><text text-anchor="middle" pointer-events="none" font-family="sans-serif" dy="2.03125" font-size="32.5" fill="#FFFFFF"/><text text-anchor="middle" pointer-events="none" font-family="sans-serif" dy="2.03125" font-size="32.5" fill="#FFFFFF"/><text text-anchor="middle" pointer-events="none" y="0" font-size="10px" fill="#FFFFFF" font-family="sans-serif"> cholinergic</text><text text-anchor="middle" pointer-events="none" y="10" font-size="10px" fill="#FFFFFF" font-family="sans-serif"> nuclei</text></g></g></svg>